# xmcd
#
# Track frame offsets:
#	150
#	11935
#	24084
#	35341
#	44022
#	54345
#	66174
#	78797
#	90514
#	103789
#	113416
#	128028
#	149328
#	160544
#	169744
#	181269
#	193127
#	204933
#	215589
#	244719
#	264844
#	288692
#	298342
#	311566
#
# Disc length: 4347 seconds
#
# Revision: 1
# Processed by: cddbd v1.5.1PL2 Copyright (c) Steve Scherf et al.
# Submitted via: audiograbber 1.83.01
#
DISCID=5010f918
DTITLE=Compilation - Kris Records... Los Angeles Showcase of Soul
DYEAR=1998
DGENRE=Soul
TTITLE0=Lee Jones - I'm Gonna Make It (Up To You)
TTITLE1=Ty Karim - Lighten Up Baby
TTITLE2=The Hill Sisters - My Lover
TTITLE3=Lee Harvey - Only True Love
TTITLE4=The La Untouchables - Money Man
TTITLE5=Lee Jones - What Is It ? (That You Are Afraid Of)
TTITLE6=The Del-Reys - Don't You Know
TTITLE7=The Hill Sisters - Oh My Love, Sweet Love
TTITLE8=Cookie Jackson - The Reason I'm Singing (The Blues)
TTITLE9=Fay Cooper - Don't Hang Yourself (Talk Too Much)
TTITLE10=Pure Ice - Live And Let Live
TTITLE11=Nadine A - Hey Baby
TTITLE12=BB Carter - Cool It Baby
TTITLE13=The Del-Reys - Walk Proud
TTITLE14=Lee Harvey - Prove It
TTITLE15=BB Carter - My Lover
TTITLE16=Lee Harvey and The La Untouchables - My Assurance
TTITLE17=Frank Foster and The La Untouchables - The Time Has Come
TTITLE18=Freddie Tate - Little Girl Of Mine
TTITLE19=Jimmy 'Preacher' Ellis - You
TTITLE20=Shades of Silk - I Fly Away (Caged Bird)
TTITLE21=Dynamic Duo - Only True Love
TTITLE22=Lee Jones - I Got To See My Baby (Part 1)
TTITLE23=Cookie Jackson - Need Of Love
EXTD=KENT SOUL Records
EXTT0=
EXTT1=
EXTT2=
EXTT3=
EXTT4=
EXTT5=
EXTT6=
EXTT7=
EXTT8=
EXTT9=
EXTT10=
EXTT11=
EXTT12=
EXTT13=
EXTT14=
EXTT15=
EXTT16=
EXTT17=
EXTT18=
EXTT19=
EXTT20=
EXTT21=
EXTT22=
EXTT23=
PLAYORDER=
